<?xml version="1.0" encoding="UTF-8" standalone="no"?>
<!-- Created with Inkscape (http://www.inkscape.org/) -->

<svg
   xmlns:dc="http://purl.org/dc/elements/1.1/"
   xmlns:cc="http://creativecommons.org/ns#"
   xmlns:rdf="http://www.w3.org/1999/02/22-rdf-syntax-ns#"
   xmlns:svg="http://www.w3.org/2000/svg"
   xmlns="http://www.w3.org/2000/svg"
   xmlns:xlink="http://www.w3.org/1999/xlink"
   xmlns:sodipodi="http://sodipodi.sourceforge.net/DTD/sodipodi-0.dtd"
   xmlns:inkscape="http://www.inkscape.org/namespaces/inkscape"
   version="1.0"
   width="96"
   height="96"
   id="svg2"
   style="display:inline"
   inkscape:version="0.91 r13725"
   sodipodi:docname="volume_off.svg">
  <sodipodi:namedview
     pagecolor="#ffffff"
     bordercolor="#666666"
     borderopacity="1"
     objecttolerance="10"
     gridtolerance="10"
     guidetolerance="10"
     inkscape:pageopacity="0"
     inkscape:pageshadow="2"
     inkscape:window-width="1332"
     inkscape:window-height="715"
     id="namedview4697"
     showgrid="false"
     showguides="true"
     inkscape:guide-bbox="true"
     inkscape:snap-center="true"
     inkscape:zoom="22.583334"
     inkscape:cx="35.338655"
     inkscape:cy="28.082556"
     inkscape:window-x="1936"
     inkscape:window-y="35"
     inkscape:window-maximized="0"
     inkscape:current-layer="svg2">
    <sodipodi:guide
       position="50.34809,58.864683"
       orientation="-0.70710678,0.70710678"
       id="guide5009" />
    <sodipodi:guide
       position="56.234558,32.312953"
       orientation="0.70710678,0.70710678"
       id="guide5011" />
    <sodipodi:guide
       position="40.01546,48.066301"
       orientation="1,0"
       id="guide5017" />
    <sodipodi:guide
       position="39.38924,48.532052"
       orientation="0,1"
       id="guide5019" />
  </sodipodi:namedview>
  <defs
     id="defs4">
    <linearGradient
       id="linearGradient4081">
      <stop
         id="stop4083"
         style="stop-color:#aaaaaa;stop-opacity:1"
         offset="0" />
      <stop
         id="stop4085"
         style="stop-color:#f0f0f0;stop-opacity:1"
         offset="1" />
    </linearGradient>
    <linearGradient
       x1="8.4487886"
       y1="-17.352135"
       x2="8.4487886"
       y2="-27.19755"
       id="linearGradient3736"
       xlink:href="#linearGradient4081"
       gradientUnits="userSpaceOnUse"
       gradientTransform="matrix(4.4444444,0,0,4.4444444,10.068244,146.54069)" />
  </defs>
  <metadata
     id="metadata7">
    <rdf:RDF>
      <cc:Work
         rdf:about="">
        <dc:format>image/svg+xml</dc:format>
        <dc:type
           rdf:resource="http://purl.org/dc/dcmitype/StillImage" />
        <dc:title />
      </cc:Work>
    </rdf:RDF>
  </metadata>
  <g
     id="g4918"
     transform="matrix(0.27622973,0,0,0.27622973,-79.037518,-0.78791394)" />
  <g
     id="g4920"
     transform="matrix(0.27622973,0,0,0.27622973,-79.037518,-0.78791394)" />
  <g
     id="g4922"
     transform="matrix(0.27622973,0,0,0.27622973,-79.037518,-0.78791394)" />
  <g
     id="g4924"
     transform="matrix(0.27622973,0,0,0.27622973,-79.037518,-0.78791394)" />
  <g
     id="g4926"
     transform="matrix(0.27622973,0,0,0.27622973,-79.037518,-0.78791394)" />
  <g
     id="g4928"
     transform="matrix(0.27622973,0,0,0.27622973,-79.037518,-0.78791394)" />
  <g
     id="g4930"
     transform="matrix(0.27622973,0,0,0.27622973,-79.037518,-0.78791394)" />
  <g
     id="g4932"
     transform="matrix(0.27622973,0,0,0.27622973,-79.037518,-0.78791394)" />
  <g
     id="g4934"
     transform="matrix(0.27622973,0,0,0.27622973,-79.037518,-0.78791394)" />
  <g
     id="g4936"
     transform="matrix(0.27622973,0,0,0.27622973,-79.037518,-0.78791394)" />
  <g
     id="g4938"
     transform="matrix(0.27622973,0,0,0.27622973,-79.037518,-0.78791394)" />
  <g
     id="g4940"
     transform="matrix(0.27622973,0,0,0.27622973,-79.037518,-0.78791394)" />
  <g
     id="g4942"
     transform="matrix(0.27622973,0,0,0.27622973,-79.037518,-0.78791394)" />
  <g
     id="g4944"
     transform="matrix(0.27622973,0,0,0.27622973,-79.037518,-0.78791394)" />
  <g
     id="g4946"
     transform="matrix(0.27622973,0,0,0.27622973,-79.037518,-0.78791394)" />
  <g
     inkscape:groupmode="layer"
     id="layer1"
     inkscape:label="Layer 1"
     style="display:inline">
    <path
       style="display:inline;fill:#ecf0f1;fill-opacity:1;stroke:#ecf0f1;stroke-opacity:1"
       id="path4916"
       d="m 45.526315,16.885189 c -0.677578,-0.67683 -1.479407,-1.015339 -2.4053,-1.015339 -0.925332,0 -1.727722,0.338509 -2.403991,1.015339 l -17.790505,17.790691 -13.9971126,0 c -0.926641,0 -1.728096,0.338509 -2.404739,1.014965 -0.67683,0.677578 -1.015338,1.478472 -1.015338,2.404552 l 0,20.515226 c 0,0.925894 0.338508,1.727536 1.015338,2.403992 0.677205,0.67683 1.478659,1.015712 2.404739,1.015712 l 13.9965516,0 17.789943,17.791253 c 0.677392,0.67552 1.479034,1.014403 2.403991,1.014403 0.927203,0 1.728283,-0.338883 2.405301,-1.014403 0.676081,-0.67683 1.014964,-1.478472 1.014964,-2.403991 l 0,-58.127848 c -1.88e-4,-0.925893 -0.33776,-1.727909 -1.013842,-2.404552 z"
       inkscape:connector-curvature="0" />
  </g>
</svg>
